# xmcd
# 
# Track frame offsets:
#     183
#     15025
#     29528
#     42348
#     54453
#     65510
#     78240
#     93513
#     110645
#     123370
#     135158
#     144640
#     161693
#     173358
#     186640
#     201668
#     216570
#     232290
# 
# Disc length: 3298
# 
# Revision: 2
# Processed by: cddbd v1.5.2PL0 Copyright (c) Steve Scherf et al.
# Submitted via: fre:ac v1.0.17
# 
DISCID=060ce012
DTITLE=Various Artist - The Country Store Collection
DYEAR=1988
DGENRE=Country
TTITLE0=Merle Haggard and George Jones - Yesterday's Wine
TTITLE1=George Jones - Almost Persuaded
TTITLE2=George Jones and Tammy Wynette - Even The Bad Times Are Good
TTITLE3=George Jones - Burning Bridges
TTITLE4=George Jones - Why Baby Why
TTITLE5=George Jones and Johnny Paycheck - Proud Mary
TTITLE6=George Jones - Shine On (Shine All Your Sweet Love On Me)
TTITLE7=George Jones and Johnny Paycheck - Roll Over Beethoven
TTITLE8=George Jones - She Thinks I Still Care
TTITLE9=George Jones and Brenda Lee - Hallelujah, I Love You So
TTITLE10=George Jones - We Can Make It
TTITLE11=George Jones with James Taylor - Bartender's Blues
TTITLE12=George Jones - Some Day My Day Will Come
TTITLE13=George Jones and Lacy J. Dalton - Size Seven Round (Made Of Gold)
TTITLE14=George Jones - Wine Colored Roses
TTITLE15=George Jones - Who's Gonna Fill Their Shoes
TTITLE16=George Jones - Radio Lover
TTITLE17=George Jones - He Stopped Loving Her Today
EXTD=
EXTT0=
EXTT1=
EXTT2=
EXTT3=
EXTT4=
EXTT5=
EXTT6=
EXTT7=
EXTT8=
EXTT9=
EXTT10=
EXTT11=
EXTT12=
EXTT13=
EXTT14=
EXTT15=
EXTT16=
EXTT17=
PLAYORDER=
